<svg width="779" height="479" viewBox="0 0 779 479" fill="none" xmlns="http://www.w3.org/2000/svg">
<path d="M158.298 389.774L643.04 389.774V36.8563L158.298 36.8563L158.298 389.774Z" fill="#CEE5FF"/>
<path opacity="0.05" d="M630.275 131.378C630.275 131.378 620.225 128.531 616.732 143.797C613.24 159.064 614.873 162.364 622.285 166.193C629.698 170.022 625.903 194.812 612.41 194.283C598.917 193.754 587.937 182.82 581.329 194.283C574.721 205.745 568.037 290.013 540.423 271.723C512.809 253.434 506.627 183.777 506.627 183.777L457.279 183.047V237.689L495.672 236.908C495.672 236.908 500.698 304.02 554.594 319.009C557.277 319.727 559.787 320.983 561.972 322.702C564.156 324.421 565.969 326.567 567.302 329.01C568.634 331.453 569.457 334.142 569.722 336.914C569.986 339.685 569.687 342.482 568.841 345.134L554.343 389.749H637.788V330.9C637.788 330.9 641.758 148.231 630.275 131.378Z" fill="black"/>
<path opacity="0.45" d="M634.12 478.703C714.135 478.703 779 469.014 779 457.063C779 445.111 714.135 435.423 634.12 435.423C554.105 435.423 489.24 445.111 489.24 457.063C489.24 469.014 554.105 478.703 634.12 478.703Z" fill="#E6E6E6"/>
<path opacity="0.45" d="M126.512 478.703C196.383 478.703 253.025 469.014 253.025 457.063C253.025 445.111 196.383 435.423 126.512 435.423C56.6415 435.423 0 445.111 0 457.063C0 469.014 56.6415 478.703 126.512 478.703Z" fill="#E6E6E6"/>
<path opacity="0.58" d="M740.053 435.422C740.053 435.422 754.827 431.442 758.094 417.788C758.094 417.788 735.254 413.052 734.5 436.707L740.053 435.422Z" fill="#0072F5"/>
<path opacity="0.73" d="M738.145 433.987C738.145 433.987 748.522 417.713 739.526 402.396C734.533 405.741 730.836 410.703 729.052 416.453C727.269 422.203 727.507 428.392 729.727 433.987H738.145Z" fill="#0072F5"/>
<path d="M735.632 433.987C735.632 433.987 730.255 416.73 713.822 413.379C713.822 413.379 710.681 424.565 724.375 433.987H735.632Z" fill="#0072F5"/>
<path d="M746.31 433.659L743.22 454.14H724.4L721.711 433.659H746.31Z" fill="#24285B"/>
<path d="M627.839 183.803C627.839 183.803 596.455 179.595 590.149 205.896C583.842 232.197 582.962 268.6 557.735 275.88C532.508 283.161 518.588 232.625 518.588 232.625C518.588 232.625 512.734 218.442 506.427 216.502C500.12 214.562 495.622 228.569 506.427 237.134C506.427 237.134 515.548 301.677 563.866 299.41C612.185 297.142 627.839 230.61 627.839 183.803Z" fill="#F4A28C"/>
<path opacity="0.08" d="M627.839 183.803C627.839 183.803 596.455 179.595 590.149 205.896C583.842 232.197 582.962 268.6 557.735 275.88C532.508 283.161 518.588 232.625 518.588 232.625C518.588 232.625 512.734 218.442 506.427 216.502C500.12 214.562 495.622 228.569 506.427 237.134C506.427 237.134 515.548 301.677 563.866 299.41C612.185 297.142 627.839 230.61 627.839 183.803Z" fill="black"/>
<path d="M627.838 183.803C627.838 183.803 594.144 177.127 589.42 204.435C586.849 220.081 582.473 235.375 576.379 250.008L602.109 258.372L627.838 183.803Z" fill="#0072F5"/>
<path opacity="0.46" d="M627.838 183.803C627.838 183.803 594.144 177.127 589.42 204.435C586.849 220.081 582.473 235.375 576.379 250.008L602.109 258.372L627.838 183.803Z" fill="white"/>
<path d="M629.447 139.439C627.067 144.549 625.377 149.954 624.422 155.512C624.345 156.182 624.404 156.86 624.594 157.507C624.784 158.154 625.102 158.756 625.528 159.278C625.955 159.799 626.481 160.23 627.077 160.544C627.672 160.857 628.324 161.048 628.995 161.104C631.126 161.454 633.313 161.179 635.292 160.312C637.272 159.445 638.959 158.023 640.151 156.217L646.056 148.962C647.087 147.382 647.603 145.519 647.531 143.632C647.459 141.745 646.803 139.928 645.654 138.431C641.684 132.587 631.784 133.695 629.447 139.439Z" fill="#F4A28C"/>
<path d="M643.769 150.624L646.156 183.803H627.838L633.316 160.273L643.769 150.624Z" fill="#F4A28C"/>
<path d="M627.009 145.359L623.014 148.03C622.786 148.178 622.599 148.382 622.469 148.621C622.339 148.861 622.271 149.13 622.271 149.403C622.271 149.675 622.339 149.944 622.469 150.184C622.599 150.423 622.786 150.627 623.014 150.776L626.381 152.816L627.009 145.359Z" fill="#F4A28C"/>
<path opacity="0.31" d="M633.165 160.827C635.371 160.438 637.43 159.454 639.12 157.981C639.12 157.981 640.326 165.16 631.582 167.579L633.165 160.827Z" fill="#CE8172"/>
<path d="M637.789 150.221C637.789 150.221 639.221 146.568 641.859 147.878C644.498 149.188 642.487 154.454 638.568 153.547L637.789 150.221Z" fill="#F4A28C"/>
<path d="M594.721 372.694L579.218 443.333H588.238L618.39 372.694H594.721Z" fill="#F4A28C"/>
<path d="M645.151 364.128L661.684 443.333H670.755L669.373 363.549L645.151 364.128Z" fill="#F4A28C"/>
<path d="M579.218 443.333C579.218 443.333 574.192 449.681 567.81 449.379C561.428 449.077 560.473 458.121 570.775 457.189C573.983 456.92 577.161 456.373 580.273 455.551C583.14 454.896 586.127 455 588.942 455.854C589.491 455.988 590.069 455.949 590.595 455.742C591.121 455.534 591.571 455.169 591.882 454.695C594.796 451.243 587.635 443.333 587.635 443.333H579.218Z" fill="#0072F5"/>
<path d="M670.076 443.333C670.076 443.333 675.102 449.681 681.484 449.379C687.866 449.077 688.821 458.121 678.544 457.189C675.336 456.923 672.158 456.375 669.046 455.551C666.171 454.896 663.175 455 660.352 455.854C659.807 455.99 659.232 455.952 658.709 455.744C658.186 455.536 657.741 455.169 657.438 454.695C654.498 451.243 661.684 443.333 661.684 443.333H670.076Z" fill="#0072F5"/>
<path d="M627.838 183.803H646.155C646.155 183.803 647.412 183.803 649.572 183.803C689.549 185.087 712.766 229.602 691.534 263.586C679.724 282.481 665.628 307.95 664.699 323.166L593.465 319.538C593.465 319.538 598.842 273.21 585.65 246.733C585.65 246.758 561.378 205.065 627.838 183.803Z" fill="#0072F5"/>
<path opacity="0.08" d="M659.648 208.063C659.648 208.063 650.804 226.428 648.693 259.455C646.582 292.482 596.606 253.459 596.606 253.459L594.294 308.025L667.035 311.981L673.091 289.862C673.091 289.862 692.162 255.525 659.648 208.063Z" fill="black"/>
<path d="M592.997 301.962L640.488 296.385L631.895 222.823L584.404 228.4L592.997 301.962Z" fill="#FFD200"/>
<path d="M597.922 233.058L620.033 230.461L618.773 219.677L596.662 222.274L597.922 233.058Z" fill="#24285B"/>
<path d="M594.294 308.025L667.036 311.88L686.484 385.743L581.329 381.99L594.294 308.025Z" fill="#24285B"/>
<path opacity="0.08" d="M587.284 253.56L637.788 273.764L640.452 296.462L592.963 302.055L587.284 253.56Z" fill="black"/>
<path d="M660.252 211.59C660.131 208.34 661.03 205.134 662.822 202.424C664.614 199.713 667.209 197.634 670.241 196.48C673.274 195.326 676.591 195.154 679.725 195.989C682.86 196.824 685.654 198.624 687.715 201.135C698.044 213.56 703.51 229.329 703.093 245.498C702.49 288.728 696.686 335.535 603.667 284.395L608.692 270.691C608.692 270.691 649.975 290.592 667.212 284.143C679.876 279.357 661.559 241.291 660.252 211.59Z" fill="#F4A28C"/>
<path d="M608.667 270.665C608.667 270.665 593.164 263.284 586.556 270.665C579.947 278.047 590.45 284.672 603.667 284.37L608.667 270.665Z" fill="#F4A28C"/>
<path d="M627.838 134.552L624.647 142.538L637.788 147.576C637.788 147.576 638.542 156.444 633.894 158.056C634.971 158.001 636.027 157.729 636.998 157.258C637.969 156.786 638.836 156.124 639.547 155.31C640.101 154.7 640.869 154.331 641.69 154.279C642.51 154.227 643.319 154.498 643.944 155.033L644.095 155.184C647.867 151.467 650.523 146.762 651.759 141.606C653.266 133.796 644.547 132.587 644.547 132.587C644.547 132.587 633.014 124.475 627.838 134.552Z" fill="#24285B"/>
<path d="M644.547 132.612C644.547 132.612 645.15 125.054 658.668 126.289C672.187 127.523 658.669 145.762 669.774 162.817C669.774 162.817 649.347 158.484 648.769 140.144L644.547 132.612Z" fill="#24285B"/>
<path d="M643.718 132.083C644.741 131.524 645.906 131.279 647.067 131.377C648.228 131.476 649.335 131.914 650.251 132.637C654.07 135.156 655.753 143.898 649.723 146.946C649.723 146.946 654.723 134.955 643.718 132.083Z" fill="#FFD200"/>
<path d="M666.157 258.372H705.781C705.781 258.372 710.128 200.429 677.338 192.872C644.548 185.314 666.157 258.372 666.157 258.372Z" fill="#0072F5"/>
<path opacity="0.46" d="M666.157 258.372H705.781C705.781 258.372 710.128 200.429 677.338 192.872C644.548 185.314 666.157 258.372 666.157 258.372Z" fill="white"/>
<path d="M476.903 228.443H536.328V178.739H476.903V228.443Z" fill="#24285B"/>
<path opacity="0.62" d="M530.146 220.734L515.975 195.391L506.05 214.159L494.04 198.238L482.004 220.734H530.146Z" fill="white"/>
<path d="M503.864 197.28C506.473 197.28 508.588 195.16 508.588 192.544C508.588 189.929 506.473 187.808 503.864 187.808C501.256 187.808 499.141 189.929 499.141 192.544C499.141 195.16 501.256 197.28 503.864 197.28Z" fill="white"/>
<path opacity="0.05" d="M194.179 207.307L162.67 208.163L152.292 389.774H197.52C200.033 381.133 206.566 336.19 231.14 310.167C255.312 284.546 354.009 218.14 317.852 173.297C300.263 151.456 270.714 234.842 270.714 234.842L224.18 240.384L227.371 238.722L194.179 207.307Z" fill="black"/>
<path d="M124.729 161.961L129.955 177.656L117.568 185.541L113.12 158.358L124.729 161.961Z" fill="#F4A28C"/>
<path d="M108.873 143.193C109.514 141.684 110.524 140.362 111.809 139.349C113.094 138.335 114.614 137.663 116.227 137.394C117.84 137.125 119.494 137.269 121.037 137.811C122.581 138.354 123.962 139.277 125.055 140.497C130.306 146.14 136.663 155.109 129.477 159.971C118.497 167.528 108.396 153.496 108.396 153.496C107.527 150.091 107.694 146.503 108.873 143.193V143.193Z" fill="#F4A28C"/>
<path d="M116.914 152.816C116.914 152.816 114.075 150.448 112.818 153.824C111.562 157.2 116.512 158.862 117.994 157.099C119.477 155.335 116.914 152.816 116.914 152.816Z" fill="#F4A28C"/>
<path d="M92.0381 193.577C92.0381 193.577 41.1316 224.362 34.4228 296.865C33.8444 302.889 35.4481 308.921 38.9408 313.857C42.4335 318.792 47.5816 322.303 53.4437 323.745L113.119 338.181L92.0381 193.577Z" fill="#0072F5"/>
<path opacity="0.2" d="M92.0381 193.577C92.0381 193.577 41.1316 224.362 34.4228 296.865C33.8444 302.889 35.4481 308.921 38.9408 313.857C42.4335 318.792 47.5816 322.303 53.4437 323.745L113.119 338.181L92.0381 193.577Z" fill="white"/>
<path d="M113.413 281.467L35.1924 317.505L58.6936 368.781L136.914 332.743L113.413 281.467Z" fill="#FFD200"/>
<path d="M118.472 148.76C118.472 148.76 124.302 165.538 114.125 164.48C103.949 163.422 109.502 156.217 104.452 148.76C99.4013 141.303 101.939 136.164 109.779 129.69C113.321 126.692 115.683 125.281 117.116 123.694C117.715 122.987 118.482 122.445 119.347 122.116C120.212 121.787 121.146 121.683 122.061 121.814C122.977 121.945 123.845 122.306 124.583 122.864C125.322 123.422 125.908 124.158 126.287 125.004C128.925 131.453 128.95 140.069 118.472 148.76Z" fill="#24285B"/>
<path d="M80.2542 208.692C82.6699 203.312 86.2143 198.517 90.6458 194.635C95.0774 190.753 100.292 187.874 105.934 186.196C127.718 179.646 169.052 165.891 181.313 186.196C198.023 214.134 172.293 323.846 172.293 323.846L99.0991 329.615C99.0991 329.615 58.8714 256.835 80.2542 208.692Z" fill="#0072F5"/>
<path d="M172.244 323.896L162.62 449.984H147.418L133.825 352.011L100.206 329.59L172.244 323.896Z" fill="#24285B"/>
<path d="M100.205 329.59L79.2239 449.984H95.531L130.733 349.971L100.205 329.59Z" fill="#24285B"/>
<path opacity="0.08" d="M112.265 184.231C112.265 184.231 78.0429 294.724 176.841 302.03L172.242 323.897L99.0989 329.615C82.2912 299.901 73.7684 266.2 74.4246 232.046C74.4246 232.046 75.0528 203.881 94.8274 191.411C100.066 187.804 106.01 185.356 112.265 184.231Z" fill="black"/>
<path d="M82.1897 449.984L72.1391 457.541C71.7679 457.822 71.4934 458.213 71.3538 458.658C71.2142 459.102 71.2165 459.58 71.3602 460.023C71.504 460.467 71.7822 460.854 72.1559 461.132C72.5297 461.41 72.9806 461.564 73.4456 461.572H90.4061C90.9949 461.572 91.5599 461.339 91.9786 460.924C92.3972 460.509 92.6358 459.945 92.6424 459.355V450.084L82.1897 449.984Z" fill="#0072F5"/>
<path d="M162.193 449.984L171.716 457.541C172.092 457.826 172.369 458.223 172.506 458.676C172.644 459.128 172.636 459.612 172.482 460.059C172.329 460.506 172.039 460.893 171.653 461.165C171.267 461.437 170.805 461.579 170.334 461.572H158.248C156.542 461.572 154.906 460.893 153.699 459.683C152.493 458.474 151.815 456.833 151.815 455.123V450.084L162.193 449.984Z" fill="#0072F5"/>
<path d="M311.796 174.885L300.941 171.685L252.724 213.731C249.179 216.81 244.888 218.897 240.282 219.781C235.676 220.666 230.919 220.317 226.491 218.769C213.381 214.298 202.232 205.391 194.957 193.577C177.67 165.463 148.297 175.615 148.297 175.615C148.297 175.615 126.161 197.482 170.007 234.993C196.189 257.389 222.999 258.8 240.361 256.306C242.48 256.049 244.61 255.907 246.743 255.878C248.794 255.807 250.813 255.355 252.698 254.542C255.032 253.541 257.305 252.405 259.508 251.141V251.141C277.297 240.838 296.469 219.021 311.796 174.885Z" fill="#0072F5"/>
<path opacity="0.2" d="M311.796 174.885L300.941 171.685L252.724 213.731C249.179 216.81 244.888 218.897 240.282 219.781C235.676 220.666 230.919 220.317 226.491 218.769C213.381 214.298 202.232 205.391 194.957 193.577C177.67 165.463 148.297 175.615 148.297 175.615C148.297 175.615 126.161 197.482 170.007 234.993C196.189 257.389 222.999 258.8 240.361 256.306C242.48 256.049 244.61 255.907 246.743 255.878C248.794 255.807 250.813 255.355 252.698 254.542C255.032 253.541 257.305 252.405 259.508 251.141V251.141C277.297 240.838 296.469 219.021 311.796 174.885Z" fill="white"/>
<path d="M300.942 171.685C300.942 171.685 307.048 154.05 311.897 152.816C316.747 151.582 311.897 162.238 311.897 162.238C311.897 162.238 325.214 168.788 311.897 174.834L300.942 171.685Z" fill="#F4A28C"/>
<path opacity="0.55" d="M353.872 217.501L343.57 230.449C332.614 244.234 327.441 261.754 329.147 279.297L331.132 299.451L361.284 271.991L353.872 217.501Z" fill="#0F79F2"/>
<path opacity="0.55" d="M426.211 217.501L436.513 230.449C447.479 244.229 452.653 261.753 450.936 279.297L448.976 299.451L418.824 271.991L426.211 217.501Z" fill="#0F79F2"/>
<path opacity="0.55" d="M376.321 276.913C376.321 276.913 385.718 332.336 370.265 336.997C354.812 341.657 347.651 316.641 327.248 331.53C306.846 346.418 333.002 362.819 296.971 358.259C260.939 353.699 246.969 371.51 255.462 389.774H521.376C521.376 389.774 534.719 372.82 519.869 361.282C516.641 358.847 512.928 357.137 508.983 356.268C505.038 355.399 500.952 355.39 497.004 356.243C495.914 356.428 494.797 356.37 493.732 356.074C492.667 355.778 491.68 355.251 490.841 354.53C490.002 353.809 489.331 352.911 488.876 351.901C488.422 350.892 488.194 349.794 488.209 348.686C488.36 343.219 487.43 337.022 483.184 333.243C478.159 328.633 467.48 333.444 459.54 338.281C450.525 343.852 439.914 346.246 429.388 345.083C420.167 343.975 410.719 340.901 408.156 333.293C402.704 317.196 406.02 275.83 406.02 275.83L376.321 276.913Z" fill="#6AABF5"/>
<path d="M390.091 103.162C390.091 103.162 313.958 145.057 361.321 272.605H418.886C466.25 145.057 390.091 103.162 390.091 103.162Z" fill="#0F79F2"/>
<path d="M418.885 272.605L416.322 282.38H364.084L361.32 271.446L418.885 272.605Z" fill="#19395E"/>
<path d="M390.643 197.583C401.44 197.583 410.192 188.808 410.192 177.983C410.192 167.159 401.44 158.384 390.643 158.384C379.847 158.384 371.095 167.159 371.095 177.983C371.095 188.808 379.847 197.583 390.643 197.583Z" fill="#B8D9FE"/>
<path d="M192.973 85.1498C199.731 85.1498 205.209 79.6569 205.209 72.8812C205.209 66.1054 199.731 60.6125 192.973 60.6125C186.215 60.6125 180.736 66.1054 180.736 72.8812C180.736 79.6569 186.215 85.1498 192.973 85.1498Z" fill="#FFD200"/>
<path d="M227.395 85.1498C234.153 85.1498 239.632 79.6569 239.632 72.8812C239.632 66.1054 234.153 60.6125 227.395 60.6125C220.637 60.6125 215.159 66.1054 215.159 72.8812C215.159 79.6569 220.637 85.1498 227.395 85.1498Z" fill="#0072F5"/>
<path d="M260.387 85.1498C267.145 85.1498 272.624 79.6569 272.624 72.8812C272.624 66.1054 267.145 60.6125 260.387 60.6125C253.629 60.6125 248.151 66.1054 248.151 72.8812C248.151 79.6569 253.629 85.1498 260.387 85.1498Z" fill="#24285B"/>
<path d="M608.666 0H443.836V114.599H608.666V0Z" fill="#9EC9FA"/>
<path d="M501.376 66.1044H482.833V89.8859H501.376V66.1044Z" fill="#0072F5"/>
<path d="M536.026 47.8148H517.482V89.8858H536.026V47.8148Z" fill="#0072F5"/>
<path d="M570.022 29.1475H551.479V89.8859H570.022V29.1475Z" fill="#0072F5"/>
</svg>
